<svg width="25" height="24" viewBox="0 0 25 24" fill="none" xmlns="http://www.w3.org/2000/svg">
<circle cx="12.623" cy="12" r="11" fill="#FFAE0D" stroke="black" stroke-width="2"/>
<mask id="mask0_837_2620" style="mask-type:alpha" maskUnits="userSpaceOnUse" x="5" y="4" width="16" height="16">
<rect x="5.12207" y="4.5" width="15" height="15" fill="#D9D9D9"/>
</mask>
<g mask="url(#mask0_837_2620)">
<path d="M11.9971 18.248V15.123C11.9971 14.5397 11.9085 14.1074 11.7314 13.8262C11.5544 13.5449 11.32 13.2689 11.0283 12.998L11.9189 12.1074C12.0439 12.222 12.1637 12.3444 12.2783 12.4746C12.3929 12.6048 12.5075 12.7428 12.6221 12.8887C12.7679 12.6908 12.9163 12.5163 13.0674 12.3652C13.2184 12.2142 13.3721 12.0658 13.5283 11.9199C13.9242 11.5553 14.2835 11.1335 14.6064 10.6543C14.9294 10.1751 15.1012 9.33659 15.1221 8.13867L14.1377 9.12305L13.2471 8.24805L15.7471 5.74805L18.2471 8.24805L17.3721 9.12305L16.3721 8.13867C16.3512 9.62825 16.1221 10.6882 15.6846 11.3184C15.2471 11.9486 14.8096 12.4616 14.3721 12.8574C14.0387 13.1595 13.7679 13.4538 13.5596 13.7402C13.3512 14.0267 13.2471 14.4876 13.2471 15.123V18.248H11.9971ZM8.99707 9.60742C8.9554 9.39909 8.92676 9.16992 8.91113 8.91992C8.89551 8.66992 8.88249 8.4095 8.87207 8.13867L7.87207 9.12305L6.99707 8.24805L9.49707 5.74805L11.9971 8.24805L11.1064 9.12305L10.1221 8.1543C10.1221 8.37305 10.1325 8.57878 10.1533 8.77148C10.1742 8.96419 10.195 9.14388 10.2158 9.31055L8.99707 9.60742ZM10.3408 12.3574C10.1325 12.1387 9.93197 11.8835 9.73926 11.5918C9.54655 11.3001 9.37728 10.9408 9.23145 10.5137L10.4346 10.2168C10.5387 10.498 10.6585 10.7376 10.7939 10.9355C10.9294 11.1335 11.0752 11.3105 11.2314 11.4668L10.3408 12.3574Z" fill="white"/>
</g>
</svg>
